<?xml version="1.0" encoding="utf-8"?>
<!-- Generator: Adobe Illustrator 29.5.1, SVG Export Plug-In . SVG Version: 9.03 Build 0)  -->
<svg version="1.0" id="Layer_1" xmlns="http://www.w3.org/2000/svg" xmlns:xlink="http://www.w3.org/1999/xlink" x="0px" y="0px"
	 viewBox="0 0 841.9 390.6" style="enable-background:new 0 0 841.9 390.6;" xml:space="preserve">
<style type="text/css">
	.st0{fill:url(#SVGID_1_);}
	.st1{fill:url(#SVGID_00000134232837187109803450000005541241570916518814_);}
	.st2{fill:url(#SVGID_00000047035070986113868280000006101308929644400825_);}
	.st3{fill:url(#SVGID_00000013873526218342006080000011000603144209643187_);}
	.st4{fill:url(#SVGID_00000159450067813505727870000011381146506172171441_);}
	.st5{fill:url(#SVGID_00000031172855490713666350000014345115164078759066_);}
	.st6{fill:url(#SVGID_00000146498657628490289220000017277320987059095988_);}
	.st7{fill:url(#SVGID_00000111906431742139527260000015384610360002714815_);}
	.st8{fill:url(#SVGID_00000083795674477757323080000018233989402961750710_);}
	.st9{fill:url(#SVGID_00000047751975368047302710000016711235400372378014_);}
	.st10{fill:url(#SVGID_00000075846501225751338950000005822408994037652140_);}
	.st11{fill:url(#SVGID_00000040575409095194712000000007953622522081154236_);}
	.st12{fill:url(#SVGID_00000019676096366462778850000015213475663746744748_);}
	.st13{fill:url(#SVGID_00000056399195657033556190000016280584279046314647_);}
	.st14{fill:url(#SVGID_00000010274231874192815480000006323090712538347174_);}
	.st15{fill:url(#SVGID_00000137837500337033604770000007244817968367098240_);}
	.st16{fill:url(#SVGID_00000088118058661444246830000013144655254195147139_);}
	.st17{fill:url(#SVGID_00000144304794110210396010000015369972902292815023_);}
	.st18{fill:url(#SVGID_00000064327066319080262310000015231701528887371401_);}
	.st19{fill:url(#SVGID_00000054229211060689909690000000853180013585244581_);}
	.st20{fill:url(#SVGID_00000085236391675776649000000002597261096694608542_);}
	.st21{fill:url(#SVGID_00000160159893277333777880000009554600917666043785_);}
	.st22{fill:url(#SVGID_00000064353501019419889310000011813507641036508048_);}
	.st23{fill:url(#SVGID_00000127003812741874901710000000818701371102029492_);}
	.st24{fill:url(#SVGID_00000003065654215555722480000008081648286106737313_);}
	.st25{fill:url(#SVGID_00000159428510764086146870000017297476550095961525_);}
	.st26{fill:url(#SVGID_00000072273909775972453170000003114223699705406131_);}
</style>
<g>
	<g>
		<linearGradient id="SVGID_1_" gradientUnits="userSpaceOnUse" x1="183.6152" y1="341.7812" x2="661.2752" y2="341.7812">
			<stop  offset="0.129" style="stop-color:#C1944E"/>
			<stop  offset="0.5645" style="stop-color:#FEFBEB"/>
			<stop  offset="1" style="stop-color:#B07D2B"/>
		</linearGradient>
		<path class="st0" d="M197.8,340.1h-6.3c-0.9,0-1.7,0.7-1.7,1.7c0,0.9,0.7,1.7,1.7,1.7h6.3c0.9,0,1.7-0.7,1.7-1.7
			C199.5,340.9,198.8,340.1,197.8,340.1z"/>
		
			<linearGradient id="SVGID_00000102513215065572528290000003535014338776435342_" gradientUnits="userSpaceOnUse" x1="183.6142" y1="341.729" x2="661.2831" y2="341.729">
			<stop  offset="0.129" style="stop-color:#C1944E"/>
			<stop  offset="0.5645" style="stop-color:#FEFBEB"/>
			<stop  offset="1" style="stop-color:#B07D2B"/>
		</linearGradient>
		<path style="fill:url(#SVGID_00000102513215065572528290000003535014338776435342_);" d="M241.3,338.8l6.5-7.6
			c1-1.2,0.9-3.1-0.3-4.1c-1.2-1-3.1-0.9-4.1,0.3l-10.2,11.9v-10c0-1.6-1.3-2.9-2.9-2.9c-1.6,0-2.9,1.3-2.9,2.9v24.8
			c0,1.6,1.3,2.9,2.9,2.9c1.6,0,2.9-1.3,2.9-2.9v-5.8l4.1-4.8l7.1,12c0.5,0.9,1.5,1.4,2.5,1.4c0.5,0,1-0.1,1.5-0.4
			c1.4-0.8,1.8-2.6,1-4L241.3,338.8z"/>
		
			<linearGradient id="SVGID_00000049901004712450430850000008762727717871150464_" gradientUnits="userSpaceOnUse" x1="183.6114" y1="341.4647" x2="661.2842" y2="341.4647">
			<stop  offset="0.129" style="stop-color:#C1944E"/>
			<stop  offset="0.5645" style="stop-color:#FEFBEB"/>
			<stop  offset="1" style="stop-color:#B07D2B"/>
		</linearGradient>
		<path style="fill:url(#SVGID_00000049901004712450430850000008762727717871150464_);" d="M314,327.9c-0.5-1.2-1.6-1.9-2.9-1.9
			c-1.2-0.1-2.4,0.7-2.9,1.9l-9.5,25c-0.6,1.5,0.2,3.2,1.7,3.8c0.3,0.1,0.7,0.2,1,0.2c1.2,0,2.3-0.7,2.7-1.9l1.4-3.7h11l1.4,3.7
			c0.4,1.2,1.5,1.9,2.7,1.9c0.3,0,0.7-0.1,1-0.2c1.5-0.6,2.3-2.2,1.7-3.8L314,327.9z M307.5,346.3l3.6-9.5l3.6,9.5H307.5z"/>
		
			<linearGradient id="SVGID_00000053527366852498848480000004173382065648730756_" gradientUnits="userSpaceOnUse" x1="183.6158" y1="341.7812" x2="661.2737" y2="341.7812">
			<stop  offset="0.129" style="stop-color:#C1944E"/>
			<stop  offset="0.5645" style="stop-color:#FEFBEB"/>
			<stop  offset="1" style="stop-color:#B07D2B"/>
		</linearGradient>
		<path style="fill:url(#SVGID_00000053527366852498848480000004173382065648730756_);" d="M653.3,340.1H647c-0.9,0-1.7,0.7-1.7,1.7
			c0,0.9,0.7,1.7,1.7,1.7h6.3c0.9,0,1.7-0.7,1.7-1.7C654.9,340.9,654.2,340.1,653.3,340.1z"/>
		
			<linearGradient id="SVGID_00000176738872538225471900000018036619591190657171_" gradientUnits="userSpaceOnUse" x1="183.6173" y1="341.6" x2="661.2667" y2="341.6">
			<stop  offset="0.129" style="stop-color:#C1944E"/>
			<stop  offset="0.5645" style="stop-color:#FEFBEB"/>
			<stop  offset="1" style="stop-color:#B07D2B"/>
		</linearGradient>
		<path style="fill:url(#SVGID_00000176738872538225471900000018036619591190657171_);" d="M284.2,325.4c-1.6,0-2.9,1.3-2.9,2.9
			v18.8c-0.1,1.2-0.7,4.8-5.1,4.8c-4,0-4.6-2.1-4.6-3.4l0,0v-19.9c0-1.6-1.3-2.9-2.9-2.9c-1.6,0-2.9,1.3-2.9,2.9v19.8
			c0,0.6,0.1,3.9,2.6,6.5c1.9,1.9,4.5,2.9,7.9,2.9c7.7,0,10.8-6.2,11-10.4l0-19C287.1,326.7,285.8,325.4,284.2,325.4z"/>
		
			<linearGradient id="SVGID_00000106839881676443552110000000084206220965195444_" gradientUnits="userSpaceOnUse" x1="183.6104" y1="341.6" x2="661.277" y2="341.6">
			<stop  offset="0.129" style="stop-color:#C1944E"/>
			<stop  offset="0.5645" style="stop-color:#FEFBEB"/>
			<stop  offset="1" style="stop-color:#B07D2B"/>
		</linearGradient>
		<path style="fill:url(#SVGID_00000106839881676443552110000000084206220965195444_);" d="M471,325.4c-1.6,0-2.9,1.3-2.9,2.9v18.8
			c-0.1,1.2-0.7,4.8-5.1,4.8c-4,0-4.6-2.1-4.6-3.4l0,0v-19.9c0-1.6-1.3-2.9-2.9-2.9c-1.6,0-2.9,1.3-2.9,2.9v19.8
			c0,0.6,0.1,3.9,2.6,6.5c1.9,1.9,4.5,2.9,7.9,2.9c7.7,0,10.8-6.2,11-10.4l0-19C473.9,326.7,472.6,325.4,471,325.4z"/>
		
			<linearGradient id="SVGID_00000172422296179649202760000004302365711826417041_" gradientUnits="userSpaceOnUse" x1="183.6224" y1="341.6" x2="661.2719" y2="341.6">
			<stop  offset="0.129" style="stop-color:#C1944E"/>
			<stop  offset="0.5645" style="stop-color:#FEFBEB"/>
			<stop  offset="1" style="stop-color:#B07D2B"/>
		</linearGradient>
		<path style="fill:url(#SVGID_00000172422296179649202760000004302365711826417041_);" d="M582.7,325.4c-1.6,0-2.9,1.3-2.9,2.9
			v18.8c-0.1,1.2-0.7,4.8-5.1,4.8c-4,0-4.6-2.1-4.6-3.4h0v-19.9c0-1.6-1.3-2.9-2.9-2.9c-1.6,0-2.9,1.3-2.9,2.9v19.8
			c0,0.6,0.1,3.9,2.6,6.5c1.9,1.9,4.5,2.9,7.9,2.9c7.7,0,10.8-6.2,11-10.4l0-19C585.6,326.7,584.3,325.4,582.7,325.4z"/>
		
			<linearGradient id="SVGID_00000018933113435112162830000015994251597021883795_" gradientUnits="userSpaceOnUse" x1="183.6157" y1="341.3661" x2="661.2716" y2="341.3661">
			<stop  offset="0.129" style="stop-color:#C1944E"/>
			<stop  offset="0.5645" style="stop-color:#FEFBEB"/>
			<stop  offset="1" style="stop-color:#B07D2B"/>
		</linearGradient>
		<path style="fill:url(#SVGID_00000018933113435112162830000015994251597021883795_);" d="M354,351.5h-12v-23.2
			c0-1.6-1.3-2.9-2.9-2.9s-2.9,1.3-2.9,2.9v26.1c0,1.6,1.3,2.9,2.9,2.9H354c1.6,0,2.9-1.3,2.9-2.9
			C356.9,352.8,355.6,351.5,354,351.5z"/>
		
			<linearGradient id="SVGID_00000145044879714971913410000015875058159344703914_" gradientUnits="userSpaceOnUse" x1="183.6225" y1="341.4647" x2="661.2636" y2="341.4647">
			<stop  offset="0.129" style="stop-color:#C1944E"/>
			<stop  offset="0.5645" style="stop-color:#FEFBEB"/>
			<stop  offset="1" style="stop-color:#B07D2B"/>
		</linearGradient>
		<path style="fill:url(#SVGID_00000145044879714971913410000015875058159344703914_);" d="M381.9,327.9c-0.5-1.2-1.6-1.9-2.9-1.9
			c-1.2-0.1-2.4,0.7-2.9,1.9l-9.5,25c-0.6,1.5,0.2,3.2,1.7,3.8c0.3,0.1,0.7,0.2,1,0.2c1.2,0,2.3-0.7,2.7-1.9l1.4-3.7h11l1.4,3.7
			c0.4,1.2,1.5,1.9,2.7,1.9c0.3,0,0.7-0.1,1-0.2c1.5-0.6,2.3-2.2,1.7-3.8L381.9,327.9z M375.4,346.3l3.6-9.5l3.6,9.5H375.4z"/>
		
			<linearGradient id="SVGID_00000133518564415662957000000014334430100634494643_" gradientUnits="userSpaceOnUse" x1="183.615" y1="341.3661" x2="661.2714" y2="341.3661">
			<stop  offset="0.129" style="stop-color:#C1944E"/>
			<stop  offset="0.5645" style="stop-color:#FEFBEB"/>
			<stop  offset="1" style="stop-color:#B07D2B"/>
		</linearGradient>
		<path style="fill:url(#SVGID_00000133518564415662957000000014334430100634494643_);" d="M440.8,351.5h-12v-23.2
			c0-1.6-1.3-2.9-2.9-2.9c-1.6,0-2.9,1.3-2.9,2.9v26.1c0,1.6,1.3,2.9,2.9,2.9h14.9c1.6,0,2.9-1.3,2.9-2.9
			C443.7,352.8,442.4,351.5,440.8,351.5z"/>
		
			<linearGradient id="SVGID_00000101081610354075780200000011629653351197324428_" gradientUnits="userSpaceOnUse" x1="183.6244" y1="341.7294" x2="661.2709" y2="341.7294">
			<stop  offset="0.129" style="stop-color:#C1944E"/>
			<stop  offset="0.5645" style="stop-color:#FEFBEB"/>
			<stop  offset="1" style="stop-color:#B07D2B"/>
		</linearGradient>
		<path style="fill:url(#SVGID_00000101081610354075780200000011629653351197324428_);" d="M622.2,335.6c0-6.5-5.9-9.1-9.9-9.2
			l-9.1,0c-0.1,0-0.2,0-0.2,0c-0.1,0-0.2,0-0.2,0c-1.6,0-2.9,1.3-2.9,2.9v24.8c0,1.6,1.3,2.9,2.9,2.9c1.6,0,2.9-1.3,2.9-2.9v-8.7
			h5.3l5.9,10c0.5,0.9,1.5,1.4,2.5,1.4c0.5,0,1-0.1,1.5-0.4c1.4-0.8,1.8-2.6,1-4l-5-8.5C619.5,342.5,622.2,339.8,622.2,335.6z
			 M605.6,332.2h6.5c0.8,0,4.3,0.4,4.3,3.4c0,2.7-3.5,3.8-4.4,4h-6.4V332.2z"/>
		
			<linearGradient id="SVGID_00000054245096957173901230000017294606817713042821_" gradientUnits="userSpaceOnUse" x1="183.6138" y1="342.37" x2="661.2731" y2="342.37">
			<stop  offset="0.129" style="stop-color:#C1944E"/>
			<stop  offset="0.5645" style="stop-color:#FEFBEB"/>
			<stop  offset="1" style="stop-color:#B07D2B"/>
		</linearGradient>
		<path style="fill:url(#SVGID_00000054245096957173901230000017294606817713042821_);" d="M542.2,326.4l-9.1,0
			c-1.6,0-2.9,1.3-2.9,2.9v12.3c-0.1,0.3-0.2,0.6-0.2,1c0,0.3,0.1,0.7,0.2,1v11.9c0,1.6,1.3,2.9,2.9,2.9c1.6,0,2.9-1.3,2.9-2.9v-9.9
			h6.5l0.3-0.1c3.2-0.6,9.3-3.5,9.3-9.8C552.1,329.1,546.2,326.5,542.2,326.4z M541.9,339.7H536v-7.4h6c0.8,0,4.3,0.4,4.3,3.4
			C546.3,338.3,542.8,339.4,541.9,339.7z"/>
		
			<linearGradient id="SVGID_00000043435712218790919330000000572500939057210246_" gradientUnits="userSpaceOnUse" x1="183.6148" y1="343.4429" x2="661.2739" y2="343.4429">
			<stop  offset="0.129" style="stop-color:#C1944E"/>
			<stop  offset="0.5645" style="stop-color:#FEFBEB"/>
			<stop  offset="1" style="stop-color:#B07D2B"/>
		</linearGradient>
		<path style="fill:url(#SVGID_00000043435712218790919330000000572500939057210246_);" d="M514,327.4c-1.3-0.3-2.6,0.2-3.3,1.4
			l-7.6,13.6l-8.4-13.7c-0.7-1.1-2-1.6-3.3-1.3c-1.3,0.4-2.1,1.5-2.1,2.8V356c0,1.6,1.3,2.9,2.9,2.9c1.6,0,2.9-1.3,2.9-2.9v-15.5
			l5.6,9.1c0.5,0.9,1.5,1.4,2.5,1.4c0,0,0,0,0.1,0c1,0,2-0.6,2.5-1.5l4.6-8.2v15.3c0,1.6,1.3,2.9,2.9,2.9c1.6,0,2.9-1.3,2.9-2.9
			v-26.5C516.2,328.9,515.3,327.7,514,327.4z"/>
	</g>
	<g>
		
			<linearGradient id="SVGID_00000109007868891967746100000005296028932282895012_" gradientUnits="userSpaceOnUse" x1="117.6194" y1="227.2367" x2="710.0961" y2="227.2367">
			<stop  offset="0" style="stop-color:#E1E2E2"/>
			<stop  offset="0.3441" style="stop-color:#929497"/>
			<stop  offset="0.7043" style="stop-color:#FFFFFF"/>
			<stop  offset="1" style="stop-color:#A6A7AA"/>
		</linearGradient>
		<polygon style="fill:url(#SVGID_00000109007868891967746100000005296028932282895012_);" points="318.7,235.5 309.7,207 
			302.1,207 314.9,247.4 314.9,247.4 322.4,247.4 322.5,247.4 335.2,207 327.6,207 		"/>
		
			<linearGradient id="SVGID_00000090289081069668698280000003758041103915612561_" gradientUnits="userSpaceOnUse" x1="117.6192" y1="227.2367" x2="710.0976" y2="227.2367">
			<stop  offset="0" style="stop-color:#E1E2E2"/>
			<stop  offset="0.3441" style="stop-color:#929497"/>
			<stop  offset="0.7043" style="stop-color:#FFFFFF"/>
			<stop  offset="1" style="stop-color:#A6A7AA"/>
		</linearGradient>
		<polygon style="fill:url(#SVGID_00000090289081069668698280000003758041103915612561_);" points="236,207 234,207 234,247.4 
			236,247.4 241.8,247.4 260.9,247.4 260.9,240.7 241.8,240.7 241.8,230.4 258,230.4 258,223.6 241.8,223.6 241.8,213.8 
			260.9,213.8 260.9,207 241.8,207 		"/>
		
			<linearGradient id="SVGID_00000080885612144634820430000010615920125650217901_" gradientUnits="userSpaceOnUse" x1="117.6191" y1="227.2367" x2="710.0975" y2="227.2367">
			<stop  offset="0" style="stop-color:#E1E2E2"/>
			<stop  offset="0.3441" style="stop-color:#929497"/>
			<stop  offset="0.7043" style="stop-color:#FFFFFF"/>
			<stop  offset="1" style="stop-color:#A6A7AA"/>
		</linearGradient>
		<polygon style="fill:url(#SVGID_00000080885612144634820430000010615920125650217901_);" points="380.6,207 378.6,207 
			378.6,247.4 380.6,247.4 386.4,247.4 405.5,247.4 405.5,240.7 386.4,240.7 386.4,230.4 402.6,230.4 402.6,223.6 386.4,223.6 
			386.4,213.8 405.5,213.8 405.5,207 386.4,207 		"/>
		
			<linearGradient id="SVGID_00000093144445966228792240000002168393103569010565_" gradientUnits="userSpaceOnUse" x1="117.6178" y1="227.2367" x2="710.096" y2="227.2367">
			<stop  offset="0" style="stop-color:#E1E2E2"/>
			<stop  offset="0.3441" style="stop-color:#929497"/>
			<stop  offset="0.7043" style="stop-color:#FFFFFF"/>
			<stop  offset="1" style="stop-color:#A6A7AA"/>
		</linearGradient>
		<polygon style="fill:url(#SVGID_00000093144445966228792240000002168393103569010565_);" points="467.5,232.1 451.2,207 
			443.4,207 443.4,247.4 451.2,247.4 451.2,222.3 467.5,247.4 475.3,247.4 475.3,207 467.5,207 		"/>
		
			<linearGradient id="SVGID_00000163046434069781942140000003013511646686489239_" gradientUnits="userSpaceOnUse" x1="117.6204" y1="227.2367" x2="710.0962" y2="227.2367">
			<stop  offset="0" style="stop-color:#E1E2E2"/>
			<stop  offset="0.3441" style="stop-color:#929497"/>
			<stop  offset="0.7043" style="stop-color:#FFFFFF"/>
			<stop  offset="1" style="stop-color:#A6A7AA"/>
		</linearGradient>
		<polygon style="fill:url(#SVGID_00000163046434069781942140000003013511646686489239_);" points="526.1,207 515.8,207 
			515.8,213.8 526.1,213.8 526.1,247.4 533.8,247.4 533.8,213.8 544.1,213.8 544.1,207 533.8,207 		"/>
		
			<linearGradient id="SVGID_00000034062637226174843900000016274818383593400453_" gradientUnits="userSpaceOnUse" x1="117.6172" y1="227.1733" x2="710.0964" y2="227.1733">
			<stop  offset="0" style="stop-color:#E1E2E2"/>
			<stop  offset="0.3441" style="stop-color:#929497"/>
			<stop  offset="0.7043" style="stop-color:#FFFFFF"/>
			<stop  offset="1" style="stop-color:#A6A7AA"/>
		</linearGradient>
		<path style="fill:url(#SVGID_00000034062637226174843900000016274818383593400453_);" d="M597,223.6c-6.9-0.5-6.9-3.5-6.9-6.4
			c0-1.4,2.1-4.1,5.9-4.1c4.4,0,8.7,3.5,8.8,3.5l2.2-2.7l2.2-2.7c-0.6-0.5-6.4-5.1-13.2-5.1c-7.7,0-12.9,5.8-12.9,11.1
			c0,1.6,0,4.9,2,7.9c2.2,3.3,6.1,5.2,11.5,5.5c3.4,0.2,5.8,1,6.6,2.1c0.7,0.9,0.7,2.5,0.7,4.2v0.1c-0.1,1-2.5,4.3-7.7,4.3
			c-5.3,0-8.3-2.5-8.6-2.8l-1.2-1.2l-5.1,4.9l1.2,1.3l0.1,0.1c0.2,0.2,5,4.9,13.6,4.9c8.7,0,14.7-6,14.7-11.3v-0.1
			C610.8,232.6,610.8,224.5,597,223.6z"/>
	</g>
	<g>
		
			<linearGradient id="SVGID_00000052104259448695564680000017354663068567709316_" gradientUnits="userSpaceOnUse" x1="117.6172" y1="90.6337" x2="710.095" y2="90.6337">
			<stop  offset="0" style="stop-color:#E1E2E2"/>
			<stop  offset="0.3441" style="stop-color:#929497"/>
			<stop  offset="0.7043" style="stop-color:#FFFFFF"/>
			<stop  offset="1" style="stop-color:#A6A7AA"/>
		</linearGradient>
		<path style="fill:url(#SVGID_00000052104259448695564680000017354663068567709316_);" d="M212.2,159.9h-0.6
			c-9.1,0-16.7-3.1-22.8-9.2c-6.1-6.1-9.2-13.8-9.2-22.9V95c0-3.3-1.2-6.1-3.5-8.4c-2.4-2.3-5.2-3.5-8.4-3.5h-16.1v34.1
			c0,3-0.9,5.4-2.8,7.2c-1.9,1.8-4.3,2.7-7.3,2.7c-3,0-5.3-0.9-7.2-2.7c-1.8-1.8-2.7-4.2-2.7-7.2V31.5c0-3,0.9-5.4,2.7-7.3
			c1.8-1.9,4.2-2.8,7.2-2.8c3,0,5.4,0.9,7.3,2.8c1.9,1.9,2.8,4.3,2.8,7.3v31.5l7.5,0.1c3.1-0.3,5.7-1.6,7.8-3.9c2-2.3,3-5.1,3-8.2
			c0-2.9,0.9-5.3,2.8-7.1c1.9-1.9,4.2-2.8,7.1-2.8c3,0,5.4,0.9,7.2,2.8c1.9,1.9,2.8,4.3,2.8,7.3c0,6.1-1.6,11.8-4.9,17.1
			c9.8,6.3,14.6,15.3,14.6,26.9v32.8c0,3.4,1.2,6.2,3.5,8.5c2.3,2.3,5.2,3.5,8.5,3.5h0.6c6.6,0,9.9,3.4,9.9,10.1
			c0,3-0.9,5.4-2.7,7.2C217.5,159,215.1,159.9,212.2,159.9z"/>
		
			<linearGradient id="SVGID_00000052787241906080060480000002816193583737198236_" gradientUnits="userSpaceOnUse" x1="117.6175" y1="74.2272" x2="710.0934" y2="74.2272">
			<stop  offset="0" style="stop-color:#E1E2E2"/>
			<stop  offset="0.3441" style="stop-color:#929497"/>
			<stop  offset="0.7043" style="stop-color:#FFFFFF"/>
			<stop  offset="1" style="stop-color:#A6A7AA"/>
		</linearGradient>
		<path style="fill:url(#SVGID_00000052787241906080060480000002816193583737198236_);" d="M246,127.2h-6.5
			c-9.1,0-16.7-3.1-22.8-9.2c-6.1-6.1-9.2-13.8-9.2-22.9v-64c0-3,0.9-5.4,2.8-7.2c1.8-1.8,4.2-2.7,7.2-2.7c2.9,0,5.4,0.9,7.2,2.7
			c1.9,1.8,2.8,4.2,2.8,7.2v64c0,3.4,1.1,6.2,3.5,8.6c2.3,2.3,5.2,3.5,8.5,3.5h6.5c3,0,5.3,0.9,7.2,2.8c1.8,1.9,2.7,4.3,2.7,7.3
			c0,3-0.9,5.4-2.7,7.2C251.4,126.3,249,127.2,246,127.2z"/>
		
			<linearGradient id="SVGID_00000156574373626001216040000000438296103771641252_" gradientUnits="userSpaceOnUse" x1="117.6171" y1="105.7753" x2="710.0942" y2="105.7753">
			<stop  offset="0" style="stop-color:#E1E2E2"/>
			<stop  offset="0.3441" style="stop-color:#929497"/>
			<stop  offset="0.7043" style="stop-color:#FFFFFF"/>
			<stop  offset="1" style="stop-color:#A6A7AA"/>
		</linearGradient>
		<path style="fill:url(#SVGID_00000156574373626001216040000000438296103771641252_);" d="M393.9,83.6c0-3.3-1.2-6.1-3.5-8.4
			c-2.3-2.3-5.1-3.5-8.4-3.5c-3.9,0-7.1,1.5-9.5,4.6v41c0,3-0.9,5.4-2.8,7.2c-1.9,1.8-4.3,2.7-7.2,2.7c-2.9,0-5.4-0.9-7.2-2.7
			c-1.8-1.8-2.7-4.2-2.7-7.2V83.6c0-3.3-1.2-6.1-3.5-8.4c-2.4-2.3-5.2-3.5-8.4-3.5c-3.3,0-6.2,1.2-8.5,3.4c-2.3,2.3-3.5,5.1-3.5,8.5
			v33.7c0,3-0.9,5.4-2.7,7.2c-1.8,1.8-4.2,2.7-7.2,2.7c-3,0-5.4-0.9-7.2-2.7c-1.9-1.8-2.8-4.2-2.8-7.2V83.6c0-9,3.1-16.6,9.3-22.7
			c6.2-6.1,13.7-9.2,22.7-9.2c7.8,0,14.7,2.5,20.7,7.6c5.9-5,12.8-7.6,20.7-7.6c9,0,16.5,3.1,22.6,9.2c6.1,6.1,9.2,13.7,9.2,22.7
			v44.3c0,3.4,1.2,6.2,3.5,8.5c2.3,2.3,5.1,3.5,8.5,3.5h0.6c3,0,5.4,0.9,7.3,2.8c1.9,1.9,2.8,4.3,2.8,7.3c0,3-0.9,5.4-2.8,7.2
			c-1.9,1.8-4.3,2.8-7.3,2.8h-0.6c-9,0-16.5-3.1-22.7-9.3c-6.2-6.2-9.2-13.8-9.2-22.8V83.6z"/>
		
			<linearGradient id="SVGID_00000166656485284929315030000015390982363484253852_" gradientUnits="userSpaceOnUse" x1="117.6178" y1="89.5886" x2="710.0948" y2="89.5886">
			<stop  offset="0" style="stop-color:#E1E2E2"/>
			<stop  offset="0.3441" style="stop-color:#929497"/>
			<stop  offset="0.7043" style="stop-color:#FFFFFF"/>
			<stop  offset="1" style="stop-color:#A6A7AA"/>
		</linearGradient>
		<path style="fill:url(#SVGID_00000166656485284929315030000015390982363484253852_);" d="M459.7,51.7c10.6,0,19.6,3.6,26.9,10.9
			c7.3,7.3,11,16.3,11,27c0,10.7-3.6,19.7-11,27c-7.3,7.3-16.2,11-26.9,11c-10.6,0-19.6-3.7-26.8-11c-7.2-7.3-10.9-16.3-10.9-27
			c0-10.7,3.6-19.7,10.9-27C440.1,55.3,449,51.7,459.7,51.7z M459.7,71.7c-4.9,0-9.1,1.8-12.6,5.2c-3.4,3.5-5.2,7.7-5.2,12.6
			c0,5,1.7,9.2,5.2,12.7c3.5,3.5,7.6,5.3,12.6,5.3c4.9,0,9.1-1.8,12.6-5.3c3.5-3.5,5.3-7.7,5.3-12.7c0-4.9-1.8-9.2-5.3-12.6
			C468.8,73.4,464.6,71.7,459.7,71.7z"/>
		
			<linearGradient id="SVGID_00000133527600424070677750000006674847917245548434_" gradientUnits="userSpaceOnUse" x1="117.6174" y1="74.2272" x2="710.0944" y2="74.2272">
			<stop  offset="0" style="stop-color:#E1E2E2"/>
			<stop  offset="0.3441" style="stop-color:#929497"/>
			<stop  offset="0.7043" style="stop-color:#FFFFFF"/>
			<stop  offset="1" style="stop-color:#A6A7AA"/>
		</linearGradient>
		<path style="fill:url(#SVGID_00000133527600424070677750000006674847917245548434_);" d="M543.3,51.4c10.6,0,19.6,3.7,26.9,11
			c7.3,7.3,10.9,16.3,10.9,27c0,10.6-3.7,19.6-11,26.9c-7.3,7.3-16.3,11-26.8,11c-10.6,0-19.5-3.7-26.8-11
			c-7.3-7.3-10.9-16.3-10.9-26.9V31.2c0-2.9,0.9-5.3,2.8-7.1c1.9-1.9,4.2-2.8,7.1-2.8c3,0,5.4,0.9,7.2,2.7c1.9,1.8,2.8,4.2,2.8,7.2
			v58.2c0,5,1.7,9.1,5.2,12.6c3.4,3.5,7.6,5.2,12.6,5.2c4.9,0,9.1-1.7,12.6-5.2c3.5-3.5,5.2-7.7,5.2-12.6c0-4.9-1.7-9.2-5.2-12.7
			c-3.5-3.5-7.7-5.3-12.6-5.3c-3,0-5.4-0.9-7.2-2.7c-1.8-1.8-2.7-4.2-2.7-7.2c0-3,0.9-5.4,2.7-7.3C538,52.3,540.4,51.4,543.3,51.4z"
			/>
		
			<linearGradient id="SVGID_00000066505414016928233730000003422442760248162445_" gradientUnits="userSpaceOnUse" x1="117.6171" y1="73.5573" x2="710.0948" y2="73.5573">
			<stop  offset="0" style="stop-color:#E1E2E2"/>
			<stop  offset="0.3441" style="stop-color:#929497"/>
			<stop  offset="0.7043" style="stop-color:#FFFFFF"/>
			<stop  offset="1" style="stop-color:#A6A7AA"/>
		</linearGradient>
		<path style="fill:url(#SVGID_00000066505414016928233730000003422442760248162445_);" d="M607.7,23.5c2.4,2.4,3.6,5.3,3.6,8.7
			c0,3.4-1.2,6.3-3.6,8.7c-2.4,2.4-5.3,3.6-8.7,3.6c-3.4,0-6.3-1.2-8.7-3.6c-2.4-2.4-3.6-5.3-3.6-8.7c0-3.4,1.2-6.3,3.6-8.7
			c2.4-2.4,5.3-3.6,8.7-3.6C602.4,19.9,605.3,21.1,607.7,23.5z M609.1,61.6c0-6.6-3.4-10-10.1-10c-3,0-5.4,0.9-7.2,2.7
			c-1.8,1.8-2.7,4.2-2.7,7.2v55.7c0,3,0.9,5.4,2.7,7.2c1.8,1.8,4.2,2.7,7.2,2.7c2.9,0,5.4-0.9,7.2-2.7c1.9-1.8,2.8-4.2,2.8-7.2V61.6
			z"/>
		
			<linearGradient id="SVGID_00000147216441043901976360000017296317396145566103_" gradientUnits="userSpaceOnUse" x1="117.6183" y1="74.381" x2="710.0951" y2="74.381">
			<stop  offset="0" style="stop-color:#E1E2E2"/>
			<stop  offset="0.3441" style="stop-color:#929497"/>
			<stop  offset="0.7043" style="stop-color:#FFFFFF"/>
			<stop  offset="1" style="stop-color:#A6A7AA"/>
		</linearGradient>
		<path style="fill:url(#SVGID_00000147216441043901976360000017296317396145566103_);" d="M637.2,31.5v85.8c0,3-0.9,5.4-2.8,7.2
			c-1.9,1.8-4.3,2.7-7.2,2.7c-3,0-5.3-0.9-7.2-2.7c-1.8-1.8-2.8-4.2-2.8-7.2V31.5c0-3,0.9-5.4,2.8-7.2c1.8-1.8,4.2-2.7,7.2-2.7
			C633.9,21.5,637.2,24.8,637.2,31.5z"/>
		
			<linearGradient id="SVGID_00000033344721496063268630000006236058500096934073_" gradientUnits="userSpaceOnUse" x1="117.617" y1="89.5886" x2="710.0944" y2="89.5886">
			<stop  offset="0" style="stop-color:#E1E2E2"/>
			<stop  offset="0.3441" style="stop-color:#929497"/>
			<stop  offset="0.7043" style="stop-color:#FFFFFF"/>
			<stop  offset="1" style="stop-color:#A6A7AA"/>
		</linearGradient>
		<path style="fill:url(#SVGID_00000033344721496063268630000006236058500096934073_);" d="M708.9,78.2L690,96.8
			c-2.2,2.1-4.5,3.1-6.9,3.1c-2.8,0-5.2-1-7.2-3.1c-2-2.1-3-4.5-3-7.3c0-2.5,1.1-4.8,3.3-7L686.7,72c-1.3-0.2-2.6-0.3-3.8-0.3
			c-4.9,0-9.1,1.8-12.6,5.2c-3.5,3.5-5.2,7.7-5.2,12.6c0,5,1.7,9.2,5.2,12.7c3.4,3.5,7.6,5.3,12.6,5.3h13.2c3,0,5.3,0.9,7.2,2.8
			c1.8,1.8,2.7,4.2,2.7,7.2c0,3-0.9,5.4-2.7,7.3c-1.8,1.9-4.2,2.8-7.2,2.8h-13.2c-10.6,0-19.6-3.7-26.8-11
			c-7.2-7.3-10.9-16.3-10.9-27c0-10.7,3.6-19.7,10.9-27c7.3-7.3,16.2-10.9,26.8-10.9c10.7,0,19.9,3.9,27.3,11.6c2,2.1,3,4.4,3,6.8
			C713.2,73.3,711.8,76.1,708.9,78.2z"/>
	</g>
</g>
</svg>
